%TF.GenerationSoftware,KiCad,Pcbnew,9.0.0-rc2-3baa6cd791~182~ubuntu24.04.1*%
%TF.CreationDate,2025-02-03T21:50:49-05:00*%
%TF.ProjectId,RoyalBlue54L-Feather,526f7961-6c42-46c7-9565-35344c2d4665,rev?*%
%TF.SameCoordinates,Original*%
%TF.FileFunction,Paste,Top*%
%TF.FilePolarity,Positive*%
%FSLAX46Y46*%
G04 Gerber Fmt 4.6, Leading zero omitted, Abs format (unit mm)*
G04 Created by KiCad (PCBNEW 9.0.0-rc2-3baa6cd791~182~ubuntu24.04.1) date 2025-02-03 21:50:49*
%MOMM*%
%LPD*%
G01*
G04 APERTURE LIST*
G04 Aperture macros list*
%AMRoundRect*
0 Rectangle with rounded corners*
0 $1 Rounding radius*
0 $2 $3 $4 $5 $6 $7 $8 $9 X,Y pos of 4 corners*
0 Add a 4 corners polygon primitive as box body*
4,1,4,$2,$3,$4,$5,$6,$7,$8,$9,$2,$3,0*
0 Add four circle primitives for the rounded corners*
1,1,$1+$1,$2,$3*
1,1,$1+$1,$4,$5*
1,1,$1+$1,$6,$7*
1,1,$1+$1,$8,$9*
0 Add four rect primitives between the rounded corners*
20,1,$1+$1,$2,$3,$4,$5,0*
20,1,$1+$1,$4,$5,$6,$7,0*
20,1,$1+$1,$6,$7,$8,$9,0*
20,1,$1+$1,$8,$9,$2,$3,0*%
%AMFreePoly0*
4,1,19,0.290204,0.301344,0.321117,0.247801,0.322490,0.232106,0.322490,-0.157228,0.301344,-0.215326,0.296017,-0.221139,0.221139,-0.296017,0.165105,-0.322146,0.157228,-0.322490,-0.232106,-0.322490,-0.290204,-0.301344,-0.321117,-0.247801,-0.322490,-0.232106,-0.322490,0.232106,-0.301344,0.290204,-0.247801,0.321117,-0.232106,0.322490,0.232106,0.322490,0.290204,0.301344,0.290204,0.301344,
$1*%
%AMFreePoly1*
4,1,21,0.231572,0.385173,0.236504,0.380653,0.300030,0.317127,0.322198,0.269587,0.322490,0.262904,0.322490,-0.262904,0.304550,-0.312195,0.300030,-0.317127,0.236504,-0.380653,0.188964,-0.402821,0.182281,-0.403113,-0.245807,-0.403113,-0.295098,-0.385173,-0.321325,-0.339746,-0.322490,-0.326430,-0.322490,0.326430,-0.304550,0.375721,-0.259123,0.401948,-0.245807,0.403113,0.182281,0.403113,
0.231572,0.385173,0.231572,0.385173,$1*%
%AMFreePoly2*
4,1,19,0.215326,0.301344,0.221139,0.296017,0.296017,0.221139,0.322146,0.165105,0.322490,0.157228,0.322490,-0.232106,0.301344,-0.290204,0.247801,-0.321117,0.232106,-0.322490,-0.232106,-0.322490,-0.290204,-0.301344,-0.321117,-0.247801,-0.322490,-0.232106,-0.322490,0.232106,-0.301344,0.290204,-0.247801,0.321117,-0.232106,0.322490,0.157228,0.322490,0.215326,0.301344,0.215326,0.301344,
$1*%
%AMFreePoly3*
4,1,21,0.375721,0.304550,0.401948,0.259123,0.403113,0.245807,0.403113,-0.182281,0.385173,-0.231572,0.380653,-0.236504,0.317127,-0.300030,0.269587,-0.322198,0.262904,-0.322490,-0.262904,-0.322490,-0.312195,-0.304550,-0.317127,-0.300030,-0.380653,-0.236504,-0.402821,-0.188964,-0.403113,-0.182281,-0.403113,0.245807,-0.385173,0.295098,-0.339746,0.321325,-0.326430,0.322490,0.326430,0.322490,
0.375721,0.304550,0.375721,0.304550,$1*%
%AMFreePoly4*
4,1,21,0.312195,0.304550,0.317127,0.300030,0.380653,0.236504,0.402821,0.188964,0.403113,0.182281,0.403113,-0.245807,0.385173,-0.295098,0.339746,-0.321325,0.326430,-0.322490,-0.326430,-0.322490,-0.375721,-0.304550,-0.401948,-0.259123,-0.403113,-0.245807,-0.403113,0.182281,-0.385173,0.231572,-0.380653,0.236504,-0.317127,0.300030,-0.269587,0.322198,-0.262904,0.322490,0.262904,0.322490,
0.312195,0.304550,0.312195,0.304550,$1*%
%AMFreePoly5*
4,1,19,0.290204,0.301344,0.321117,0.247801,0.322490,0.232106,0.322490,-0.232106,0.301344,-0.290204,0.247801,-0.321117,0.232106,-0.322490,-0.157228,-0.322490,-0.215326,-0.301344,-0.221139,-0.296017,-0.296017,-0.221139,-0.322146,-0.165105,-0.322490,-0.157228,-0.322490,0.232106,-0.301344,0.290204,-0.247801,0.321117,-0.232106,0.322490,0.232106,0.322490,0.290204,0.301344,0.290204,0.301344,
$1*%
%AMFreePoly6*
4,1,21,0.295098,0.385173,0.321325,0.339746,0.322490,0.326430,0.322490,-0.326430,0.304550,-0.375721,0.259123,-0.401948,0.245807,-0.403113,-0.182281,-0.403113,-0.231572,-0.385173,-0.236504,-0.380653,-0.300030,-0.317127,-0.322198,-0.269587,-0.322490,-0.262904,-0.322490,0.262904,-0.304550,0.312195,-0.300030,0.317127,-0.236504,0.380653,-0.188964,0.402821,-0.182281,0.403113,0.245807,0.403113,
0.295098,0.385173,0.295098,0.385173,$1*%
%AMFreePoly7*
4,1,19,0.290204,0.301344,0.321117,0.247801,0.322490,0.232106,0.322490,-0.232106,0.301344,-0.290204,0.247801,-0.321117,0.232106,-0.322490,-0.232106,-0.322490,-0.290204,-0.301344,-0.321117,-0.247801,-0.322490,-0.232106,-0.322490,0.157228,-0.301344,0.215326,-0.296017,0.221139,-0.221139,0.296017,-0.165105,0.322146,-0.157228,0.322490,0.232106,0.322490,0.290204,0.301344,0.290204,0.301344,
$1*%
%AMFreePoly8*
4,1,15,0.115000,-0.348505,0.112310,-0.355000,0.112310,-0.377340,0.095212,-0.418617,0.063617,-0.450212,0.022340,-0.467310,-0.022340,-0.467310,-0.063617,-0.450212,-0.095212,-0.418617,-0.112310,-0.377340,-0.112310,-0.355000,-0.115000,-0.348505,-0.115000,0.330000,0.115000,0.330000,0.115000,-0.348505,0.115000,-0.348505,$1*%
%AMFreePoly9*
4,1,15,0.355000,0.112310,0.377340,0.112310,0.418617,0.095212,0.450212,0.063617,0.467310,0.022340,0.467310,-0.022340,0.450212,-0.063617,0.418617,-0.095212,0.377340,-0.112310,0.355000,-0.112310,0.348505,-0.115000,-0.330000,-0.115000,-0.330000,0.115000,0.348505,0.115000,0.355000,0.112310,0.355000,0.112310,$1*%
%AMFreePoly10*
4,1,15,0.063617,0.450212,0.095212,0.418617,0.112310,0.377340,0.112310,0.355000,0.115000,0.348505,0.115000,-0.330000,-0.115000,-0.330000,-0.115000,0.348505,-0.112310,0.355000,-0.112310,0.377340,-0.095212,0.418617,-0.063617,0.450212,-0.022340,0.467310,0.022340,0.467310,0.063617,0.450212,0.063617,0.450212,$1*%
%AMFreePoly11*
4,1,16,0.330000,-0.115000,-0.330000,-0.115000,-0.348505,-0.115000,-0.355000,-0.112310,-0.377340,-0.112310,-0.418617,-0.095212,-0.450212,-0.063617,-0.467310,-0.022340,-0.467310,0.022340,-0.450212,0.063617,-0.418617,0.095212,-0.377340,0.112310,-0.355000,0.112310,-0.348505,0.115000,0.330000,0.115000,0.330000,-0.115000,0.330000,-0.115000,$1*%
%AMFreePoly12*
4,1,25,0.301737,0.444662,0.322810,0.427681,0.427681,0.322810,0.461865,0.260206,0.464758,0.233297,0.464758,-0.233297,0.444662,-0.301737,0.427681,-0.322810,0.322810,-0.427681,0.260206,-0.461865,0.233297,-0.464758,-0.233297,-0.464758,-0.301737,-0.444662,-0.322810,-0.427681,-0.427681,-0.322810,-0.461865,-0.260206,-0.464758,-0.233297,-0.464758,0.233297,-0.444662,0.301737,-0.427681,0.322810,
-0.322810,0.427681,-0.260206,0.461865,-0.233297,0.464758,0.233297,0.464758,0.301737,0.444662,0.301737,0.444662,$1*%
G04 Aperture macros list end*
%ADD10RoundRect,0.140000X-0.140000X-0.170000X0.140000X-0.170000X0.140000X0.170000X-0.140000X0.170000X0*%
%ADD11RoundRect,0.135000X0.135000X0.185000X-0.135000X0.185000X-0.135000X-0.185000X0.135000X-0.185000X0*%
%ADD12RoundRect,0.250000X0.250000X1.500000X-0.250000X1.500000X-0.250000X-1.500000X0.250000X-1.500000X0*%
%ADD13RoundRect,0.250001X0.499999X1.449999X-0.499999X1.449999X-0.499999X-1.449999X0.499999X-1.449999X0*%
%ADD14C,0.400000*%
%ADD15R,0.500000X0.400000*%
%ADD16RoundRect,0.135000X-0.135000X-0.185000X0.135000X-0.185000X0.135000X0.185000X-0.135000X0.185000X0*%
%ADD17RoundRect,0.140000X-0.170000X0.140000X-0.170000X-0.140000X0.170000X-0.140000X0.170000X0.140000X0*%
%ADD18RoundRect,0.100000X-0.100000X-0.100000X0.100000X-0.100000X0.100000X0.100000X-0.100000X0.100000X0*%
%ADD19FreePoly0,90.000000*%
%ADD20FreePoly1,90.000000*%
%ADD21FreePoly2,90.000000*%
%ADD22FreePoly3,90.000000*%
%ADD23RoundRect,0.201557X0.201556X-0.201556X0.201556X0.201556X-0.201556X0.201556X-0.201556X-0.201556X0*%
%ADD24FreePoly4,90.000000*%
%ADD25FreePoly5,90.000000*%
%ADD26FreePoly6,90.000000*%
%ADD27FreePoly7,90.000000*%
%ADD28RoundRect,0.062500X0.062500X-0.337500X0.062500X0.337500X-0.062500X0.337500X-0.062500X-0.337500X0*%
%ADD29RoundRect,0.062500X0.337500X-0.062500X0.337500X0.062500X-0.337500X0.062500X-0.337500X-0.062500X0*%
%ADD30RoundRect,0.135000X0.185000X-0.135000X0.185000X0.135000X-0.185000X0.135000X-0.185000X-0.135000X0*%
%ADD31RoundRect,0.140000X0.170000X-0.140000X0.170000X0.140000X-0.170000X0.140000X-0.170000X-0.140000X0*%
%ADD32R,1.450000X0.600000*%
%ADD33R,1.450000X0.300000*%
%ADD34RoundRect,0.040000X-0.605000X0.040000X-0.605000X-0.040000X0.605000X-0.040000X0.605000X0.040000X0*%
%ADD35RoundRect,0.062500X-0.062500X0.387500X-0.062500X-0.387500X0.062500X-0.387500X0.062500X0.387500X0*%
%ADD36RoundRect,0.225000X0.250000X-0.225000X0.250000X0.225000X-0.250000X0.225000X-0.250000X-0.225000X0*%
%ADD37R,0.800000X0.900000*%
%ADD38RoundRect,0.140000X0.140000X0.170000X-0.140000X0.170000X-0.140000X-0.170000X0.140000X-0.170000X0*%
%ADD39RoundRect,0.135000X-0.185000X0.135000X-0.185000X-0.135000X0.185000X-0.135000X0.185000X0.135000X0*%
%ADD40RoundRect,0.218750X0.218750X0.256250X-0.218750X0.256250X-0.218750X-0.256250X0.218750X-0.256250X0*%
%ADD41R,1.050000X0.650000*%
%ADD42R,0.820000X1.070000*%
%ADD43FreePoly8,0.000000*%
%ADD44FreePoly9,0.000000*%
%ADD45FreePoly10,0.000000*%
%ADD46FreePoly11,0.000000*%
%ADD47RoundRect,0.225000X-0.225000X-0.250000X0.225000X-0.250000X0.225000X0.250000X-0.225000X0.250000X0*%
%ADD48R,1.000000X1.800000*%
%ADD49R,0.300000X0.800000*%
%ADD50R,0.400000X0.800000*%
%ADD51RoundRect,0.087500X-0.250000X-0.087500X0.250000X-0.087500X0.250000X0.087500X-0.250000X0.087500X0*%
%ADD52RoundRect,0.218750X0.256250X-0.218750X0.256250X0.218750X-0.256250X0.218750X-0.256250X-0.218750X0*%
%ADD53RoundRect,0.150000X0.150000X0.625000X-0.150000X0.625000X-0.150000X-0.625000X0.150000X-0.625000X0*%
%ADD54RoundRect,0.250000X0.350000X0.650000X-0.350000X0.650000X-0.350000X-0.650000X0.350000X-0.650000X0*%
%ADD55RoundRect,0.225000X0.225000X0.250000X-0.225000X0.250000X-0.225000X-0.250000X0.225000X-0.250000X0*%
%ADD56FreePoly12,180.000000*%
%ADD57RoundRect,0.062500X0.350000X0.062500X-0.350000X0.062500X-0.350000X-0.062500X0.350000X-0.062500X0*%
%ADD58RoundRect,0.062500X0.062500X0.350000X-0.062500X0.350000X-0.062500X-0.350000X0.062500X-0.350000X0*%
G04 APERTURE END LIST*
D10*
%TO.C,C25*%
X100170000Y-41280000D03*
X101130000Y-41280000D03*
%TD*%
D11*
%TO.C,R5*%
X117150000Y-51540000D03*
X116130000Y-51540000D03*
%TD*%
D12*
%TO.C,J4*%
X84820000Y-40778000D03*
X82820000Y-40778000D03*
D13*
X87170000Y-35028000D03*
X80470000Y-35028000D03*
%TD*%
D14*
%TO.C,U1*%
X115860000Y-40400000D03*
X114060000Y-40400000D03*
X108660000Y-40400000D03*
D15*
X108410000Y-40400000D03*
D14*
X115860000Y-41300000D03*
X114960000Y-41300000D03*
X114060000Y-41300000D03*
X113160000Y-41300000D03*
X112260000Y-41300000D03*
X111360000Y-41300000D03*
X110460000Y-41300000D03*
X109560000Y-41300000D03*
X108660000Y-41300000D03*
D15*
X108410000Y-41300000D03*
D14*
X109560000Y-42200000D03*
X108660000Y-42200000D03*
D15*
X108410000Y-42200000D03*
D14*
X115860000Y-43100000D03*
X109560000Y-43100000D03*
X108660000Y-43100000D03*
D15*
X108410000Y-43100000D03*
D14*
X115860000Y-44000000D03*
X109560000Y-44000000D03*
X108660000Y-44000000D03*
D15*
X108410000Y-44000000D03*
D14*
X115860000Y-44900000D03*
X109560000Y-44900000D03*
X108660000Y-44900000D03*
D15*
X108410000Y-44900000D03*
D14*
X114960000Y-45800000D03*
X109560000Y-45800000D03*
X108660000Y-45800000D03*
D15*
X108410000Y-45800000D03*
D14*
X114960000Y-46700000D03*
X109560000Y-46700000D03*
X108660000Y-46700000D03*
D15*
X108410000Y-46700000D03*
D14*
X114960000Y-47600000D03*
X114060000Y-47600000D03*
X113160000Y-47600000D03*
X112260000Y-47600000D03*
X111360000Y-47600000D03*
X110460000Y-47600000D03*
X109560000Y-47600000D03*
X108660000Y-47600000D03*
D15*
X108410000Y-47600000D03*
D14*
X114960000Y-48500000D03*
X114060000Y-48500000D03*
X113160000Y-48500000D03*
X112260000Y-48500000D03*
X111360000Y-48500000D03*
X110460000Y-48500000D03*
X109560000Y-48500000D03*
X108660000Y-48500000D03*
D15*
X108410000Y-48500000D03*
%TD*%
D16*
%TO.C,R6*%
X113880000Y-51120000D03*
X114900000Y-51120000D03*
%TD*%
D17*
%TO.C,C10*%
X87380000Y-46750000D03*
X87380000Y-47710000D03*
%TD*%
D11*
%TO.C,R7*%
X117150000Y-50600000D03*
X116130000Y-50600000D03*
%TD*%
D18*
%TO.C,D3*%
X89420000Y-44050000D03*
X90220000Y-44050000D03*
X90220000Y-44850000D03*
X89420000Y-44850000D03*
%TD*%
D19*
%TO.C,U2*%
X93120000Y-45330000D03*
D20*
X94020000Y-45330000D03*
X95020000Y-45330000D03*
D21*
X95920000Y-45330000D03*
D22*
X93120000Y-44430000D03*
D23*
X94020000Y-44430000D03*
X95020000Y-44430000D03*
D24*
X95920000Y-44430000D03*
D22*
X93120000Y-43430000D03*
D23*
X94020000Y-43430000D03*
X95020000Y-43430000D03*
D24*
X95920000Y-43430000D03*
D25*
X93120000Y-42530000D03*
D26*
X94020000Y-42530000D03*
X95020000Y-42530000D03*
D27*
X95920000Y-42530000D03*
D28*
X92770000Y-46380000D03*
X93270000Y-46380000D03*
X93770000Y-46380000D03*
X94270000Y-46380000D03*
X94770000Y-46380000D03*
X95270000Y-46380000D03*
X95770000Y-46380000D03*
X96270000Y-46380000D03*
D29*
X96970000Y-45680000D03*
X96970000Y-45180000D03*
X96970000Y-44680000D03*
X96970000Y-44180000D03*
X96970000Y-43680000D03*
X96970000Y-43180000D03*
X96970000Y-42680000D03*
X96970000Y-42180000D03*
D28*
X96270000Y-41480000D03*
X95770000Y-41480000D03*
X95270000Y-41480000D03*
X94770000Y-41480000D03*
X94270000Y-41480000D03*
X93770000Y-41480000D03*
X93270000Y-41480000D03*
X92770000Y-41480000D03*
D29*
X92070000Y-42180000D03*
X92070000Y-42680000D03*
X92070000Y-43180000D03*
X92070000Y-43680000D03*
X92070000Y-44180000D03*
X92070000Y-44680000D03*
X92070000Y-45180000D03*
X92070000Y-45680000D03*
%TD*%
D10*
%TO.C,C23*%
X85860000Y-44040000D03*
X86820000Y-44040000D03*
%TD*%
D30*
%TO.C,R2*%
X74043416Y-40825058D03*
X74043416Y-39805058D03*
%TD*%
D31*
%TO.C,C24*%
X105000000Y-42890000D03*
X105000000Y-41930000D03*
%TD*%
D17*
%TO.C,C19*%
X87380000Y-49520000D03*
X87380000Y-50480000D03*
%TD*%
%TO.C,C1*%
X98080000Y-44680000D03*
X98080000Y-45640000D03*
%TD*%
D32*
%TO.C,J3*%
X72345000Y-41200000D03*
X72345000Y-42000000D03*
D33*
X72345000Y-43200000D03*
X72345000Y-44200000D03*
X72345000Y-44700000D03*
X72345000Y-45700000D03*
D32*
X72345000Y-46900000D03*
X72345000Y-47700000D03*
X72345000Y-47700000D03*
X72345000Y-46900000D03*
D33*
X72345000Y-46200000D03*
X72345000Y-45200000D03*
X72345000Y-43700000D03*
X72345000Y-42700000D03*
D32*
X72345000Y-42000000D03*
X72345000Y-41200000D03*
%TD*%
D17*
%TO.C,C18*%
X76870000Y-48290000D03*
X76870000Y-49250000D03*
%TD*%
D34*
%TO.C,U4*%
X106400000Y-46000000D03*
D35*
X107150000Y-44575000D03*
X106650000Y-44575000D03*
X106150000Y-44575000D03*
X105650000Y-44575000D03*
X105650000Y-47425000D03*
X106150000Y-47425000D03*
X106650000Y-47425000D03*
X107150000Y-47425000D03*
%TD*%
D36*
%TO.C,C4*%
X95520000Y-39065000D03*
X95520000Y-37515000D03*
%TD*%
D37*
%TO.C,Y2*%
X78080000Y-48970000D03*
X78080000Y-50370000D03*
X79180000Y-50370000D03*
X79180000Y-48970000D03*
%TD*%
D38*
%TO.C,C16*%
X81380000Y-51180000D03*
X80420000Y-51180000D03*
%TD*%
%TO.C,C22*%
X80200000Y-46250000D03*
X79240000Y-46250000D03*
%TD*%
D31*
%TO.C,C9*%
X107200000Y-40340000D03*
X107200000Y-39380000D03*
%TD*%
D36*
%TO.C,C6*%
X91820000Y-39065000D03*
X91820000Y-37515000D03*
%TD*%
D39*
%TO.C,R8*%
X90050000Y-46480000D03*
X90050000Y-47500000D03*
%TD*%
D40*
%TO.C,D1*%
X112577500Y-51120000D03*
X111002500Y-51120000D03*
%TD*%
D10*
%TO.C,C13*%
X75250000Y-51325000D03*
X76210000Y-51325000D03*
%TD*%
D41*
%TO.C,SW1*%
X104775000Y-51075000D03*
X100625000Y-51075000D03*
X104775000Y-48925000D03*
X100650000Y-48925000D03*
%TD*%
D42*
%TO.C,U6*%
X101580000Y-43705000D03*
X101580000Y-45075000D03*
X102700000Y-43705000D03*
X102700000Y-45075000D03*
D43*
X101390000Y-42345000D03*
D44*
X100345000Y-43140000D03*
X100345000Y-43640000D03*
X100345000Y-44140000D03*
X100345000Y-44640000D03*
X100345000Y-45140000D03*
X100345000Y-45640000D03*
D45*
X101390000Y-46435000D03*
X102890000Y-46435000D03*
D46*
X103935000Y-45640000D03*
X103935000Y-45140000D03*
X103935000Y-44640000D03*
X103935000Y-44140000D03*
X103935000Y-43640000D03*
X103935000Y-43140000D03*
D43*
X102890000Y-42345000D03*
%TD*%
D30*
%TO.C,R4*%
X98140000Y-42270000D03*
X98140000Y-41250000D03*
%TD*%
D47*
%TO.C,C11*%
X96985000Y-40060000D03*
X98535000Y-40060000D03*
%TD*%
D48*
%TO.C,Y1*%
X106780000Y-37700000D03*
X109280000Y-37700000D03*
%TD*%
D41*
%TO.C,SW2*%
X104775000Y-39975000D03*
X100625000Y-39975000D03*
X104775000Y-37825000D03*
X100650000Y-37825000D03*
%TD*%
D49*
%TO.C,J6*%
X73750000Y-52750000D03*
X74250000Y-52750000D03*
X74750000Y-52750000D03*
X75250000Y-52750000D03*
X75750000Y-52750000D03*
D50*
X72750000Y-55250000D03*
X76750000Y-55250000D03*
%TD*%
D36*
%TO.C,C8*%
X97310000Y-51175000D03*
X97310000Y-49625000D03*
%TD*%
D47*
%TO.C,C2*%
X95025000Y-48140000D03*
X96575000Y-48140000D03*
%TD*%
D30*
%TO.C,R3*%
X74983416Y-40825058D03*
X74983416Y-39805058D03*
%TD*%
D10*
%TO.C,C15*%
X85530000Y-51160000D03*
X86490000Y-51160000D03*
%TD*%
D51*
%TO.C,U3*%
X74837500Y-43942500D03*
X74837500Y-44442500D03*
X74837500Y-44942500D03*
X76262500Y-44942500D03*
X76262500Y-43942500D03*
%TD*%
D52*
%TO.C,L1*%
X95800000Y-51187500D03*
X95800000Y-49612500D03*
%TD*%
D38*
%TO.C,C14*%
X74250000Y-51325000D03*
X73290000Y-51325000D03*
%TD*%
D36*
%TO.C,C5*%
X93950000Y-39065000D03*
X93950000Y-37515000D03*
%TD*%
D31*
%TO.C,C7*%
X87380000Y-45890000D03*
X87380000Y-44930000D03*
%TD*%
D16*
%TO.C,R1*%
X102190000Y-47510000D03*
X103210000Y-47510000D03*
%TD*%
D38*
%TO.C,C21*%
X79720000Y-47210000D03*
X78760000Y-47210000D03*
%TD*%
D53*
%TO.C,J5*%
X76430000Y-38103000D03*
X75430000Y-38103000D03*
X74430000Y-38103000D03*
X73430000Y-38103000D03*
D54*
X77730000Y-34228000D03*
X72130000Y-34228000D03*
%TD*%
D55*
%TO.C,C3*%
X93555000Y-48140000D03*
X92005000Y-48140000D03*
%TD*%
D38*
%TO.C,C17*%
X82810000Y-43870000D03*
X81850000Y-43870000D03*
%TD*%
D56*
%TO.C,U5*%
X84853333Y-48633333D03*
X84853333Y-47600000D03*
X84853333Y-46566667D03*
X83820000Y-48633333D03*
X83820000Y-47600000D03*
X83820000Y-46566667D03*
X82786667Y-48633333D03*
X82786667Y-47600000D03*
X82786667Y-46566667D03*
D57*
X86257500Y-49400000D03*
X86257500Y-49000000D03*
X86257500Y-48600000D03*
X86257500Y-48200000D03*
X86257500Y-47800000D03*
X86257500Y-47400000D03*
X86257500Y-47000000D03*
X86257500Y-46600000D03*
X86257500Y-46200000D03*
X86257500Y-45800000D03*
D58*
X85620000Y-45162500D03*
X85220000Y-45162500D03*
X84820000Y-45162500D03*
X84420000Y-45162500D03*
X84020000Y-45162500D03*
X83620000Y-45162500D03*
X83220000Y-45162500D03*
X82820000Y-45162500D03*
X82420000Y-45162500D03*
X82020000Y-45162500D03*
D57*
X81382500Y-45800000D03*
X81382500Y-46200000D03*
X81382500Y-46600000D03*
X81382500Y-47000000D03*
X81382500Y-47400000D03*
X81382500Y-47800000D03*
X81382500Y-48200000D03*
X81382500Y-48600000D03*
X81382500Y-49000000D03*
X81382500Y-49400000D03*
D58*
X82020000Y-50037500D03*
X82420000Y-50037500D03*
X82820000Y-50037500D03*
X83220000Y-50037500D03*
X83620000Y-50037500D03*
X84020000Y-50037500D03*
X84420000Y-50037500D03*
X84820000Y-50037500D03*
X85220000Y-50037500D03*
X85620000Y-50037500D03*
%TD*%
D17*
%TO.C,C12*%
X107150000Y-48610000D03*
X107150000Y-49570000D03*
%TD*%
D10*
%TO.C,C20*%
X78150000Y-51530000D03*
X79110000Y-51530000D03*
%TD*%
M02*
