M48
; DRILL file {KiCad 9.0.0-rc2-3baa6cd791~182~ubuntu24.04.1} date 2025-02-03T21:50:49-0500
; FORMAT={-:-/ absolute / inch / decimal}
; #@! TF.CreationDate,2025-02-03T21:50:49-05:00
; #@! TF.GenerationSoftware,Kicad,Pcbnew,9.0.0-rc2-3baa6cd791~182~ubuntu24.04.1
; #@! TF.FileFunction,Plated,1,8,PTH
FMAT,2
INCH
; #@! TA.AperFunction,Plated,PTH,ComponentDrill
T1C0.0079
; #@! TA.AperFunction,Plated,PTH,ViaDrill
T2C0.0098
; #@! TA.AperFunction,Plated,PTH,ViaDrill
T3C0.0118
; #@! TA.AperFunction,Plated,PTH,ComponentDrill
T4C0.0236
; #@! TA.AperFunction,Plated,PTH,ComponentDrill
T5C0.0394
%
G90
G05
T1
X3.239Y-1.813
X3.239Y-1.8537
X3.239Y-1.8944
X3.239Y-1.935
X3.2797Y-1.813
X3.2797Y-1.8537
X3.2797Y-1.8944
X3.2797Y-1.935
X3.3203Y-1.813
X3.3203Y-1.8537
X3.3203Y-1.8944
X3.3203Y-1.935
X3.361Y-1.813
X3.361Y-1.8537
X3.361Y-1.8944
X3.361Y-1.935
X3.6819Y-1.6902
X3.6819Y-1.7295
X3.6819Y-1.7689
X3.7213Y-1.6902
X3.7213Y-1.7295
X3.7213Y-1.7689
X3.7606Y-1.6902
X3.7606Y-1.7295
X3.7606Y-1.7689
T2
X2.8071Y-1.7008
X2.8081Y-1.8189
X2.9151Y-1.6073
X2.9236Y-1.7248
X2.9272Y-1.822
X2.9291Y-1.7697
X2.9429Y-2.1256
X2.9521Y-1.6073
X3.0201Y-1.8201
X3.0354Y-1.8039
X3.1575Y-1.7795
X3.4996Y-1.8528
X3.5236Y-2.0512
X3.5433Y-2.0276
X3.5528Y-1.502
X3.6327Y-1.5969
X3.6327Y-1.6331
X3.9071Y-1.6654
X4.0185Y-1.5016
X4.0185Y-2.0823
X4.0394Y-2.0
X4.0673Y-1.6236
X4.311Y-2.0118
X4.3504Y-1.7669
X4.6409Y-1.7748
T3
X2.6378Y-1.6535
X2.6378Y-1.7323
X2.6378Y-1.811
X2.7165Y-1.6535
X2.7165Y-1.7323
X2.7165Y-1.811
X2.7165Y-1.8898
X2.7165Y-1.9685
X2.8346Y-1.9685
X2.8346Y-2.0472
X2.8482Y-1.622
X2.8482Y-1.6535
X2.8482Y-1.878
X2.8909Y-1.5001
X2.9134Y-1.3386
X2.9134Y-1.4173
X2.9232Y-2.0207
X2.9303Y-1.5001
X2.9626Y-2.0207
X2.9697Y-1.5001
X2.9921Y-1.3386
X2.9921Y-1.4173
X3.0091Y-1.5001
X3.0264Y-1.9012
X3.074Y-1.9831
X3.0768Y-2.0287
X3.1008Y-1.8587
X3.1173Y-1.928
X3.1197Y-1.8209
X3.1661Y-2.015
X3.1712Y-1.8713
X3.2039Y-2.015
X3.2224Y-1.7272
X3.2602Y-1.7272
X3.2606Y-1.6054
X3.2677Y-1.378
X3.2677Y-1.4961
X3.2921Y-1.7488
X3.3394Y-1.6054
X3.3394Y-1.998
X3.3673Y-2.0142
X3.4051Y-2.0142
X3.4181Y-1.7339
X3.4402Y-1.7689
X3.4402Y-1.8406
X3.4402Y-1.8783
X3.4402Y-1.9874
X3.4835Y-1.885
X3.5031Y-1.9063
X3.5228Y-1.9236
X3.5402Y-1.6287
X3.5425Y-1.9437
X3.5622Y-1.9602
X3.615Y-1.477
X3.6222Y-1.8953
X3.6988Y-1.477
X3.6988Y-1.538
X3.7008Y-1.9528
X3.7008Y-1.9843
X3.7126Y-1.8953
X3.7443Y-1.5762
X3.7606Y-1.477
X3.8183Y-1.5772
X3.8307Y-1.9528
X3.8311Y-2.0148
X3.8344Y-1.4892
X3.8344Y-1.527
X3.8453Y-1.8949
X3.8544Y-1.826
X3.8614Y-1.7591
X3.8614Y-1.7969
X3.8638Y-1.624
X3.8748Y-1.7197
X3.8793Y-1.5772
X3.885Y-1.924
X3.9071Y-1.6946
X3.9106Y-1.8855
X3.9375Y-1.8845
X3.9437Y-1.6252
X3.9508Y-1.6736
X3.9626Y-1.4892
X3.9638Y-1.8843
X3.9815Y-1.6252
X3.9917Y-1.6671
X3.9921Y-1.8272
X3.9921Y-1.8839
X4.0213Y-1.7476
X4.0405Y-1.9264
X4.0508Y-1.6671
X4.0508Y-1.8281
X4.1256Y-2.0106
X4.1337Y-1.7419
X4.1339Y-1.6508
X4.1339Y-1.6886
X4.1344Y-1.8938
X4.1345Y-1.7163
X4.1575Y-1.7549
X4.1642Y-1.9138
X4.1661Y-1.7904
X4.1852Y-1.8992
X4.1917Y-1.6785
X4.2039Y-1.4843
X4.211Y-1.6953
X4.2185Y-1.9138
X4.2185Y-1.9516
X4.2205Y-1.5504
X4.2205Y-1.5882
X4.2244Y-1.7173
X4.2492Y-1.7677
X4.278Y-1.5906
X4.278Y-1.626
X4.278Y-1.6614
X4.278Y-1.7323
X4.278Y-1.8031
X4.278Y-1.9094
X4.2902Y-1.6839
X4.3024Y-1.4843
X4.3028Y-1.9339
X4.3134Y-1.626
X4.3134Y-1.6614
X4.3134Y-1.6969
X4.3134Y-1.7677
X4.3134Y-1.874
X4.3134Y-1.9094
X4.3333Y-1.7916
X4.337Y-1.7217
X4.3433Y-1.8386
X4.3488Y-1.626
X4.3488Y-1.874
X4.3492Y-1.9091
X4.3702Y-2.0126
X4.3719Y-1.9382
X4.3843Y-1.9094
X4.4066Y-1.7791
X4.4142Y-1.7268
X4.4197Y-1.9094
X4.4322Y-1.7795
X4.4433Y-1.9228
X4.4445Y-1.8496
X4.4476Y-1.7236
X4.4539Y-1.948
X4.4555Y-1.5831
X4.4762Y-1.7065
X4.4882Y-1.8457
X4.4906Y-1.5906
X4.4906Y-1.626
X4.4906Y-1.874
X4.4906Y-1.9094
X4.4929Y-1.6626
X4.5236Y-2.0126
X4.526Y-1.9094
X4.5614Y-1.5906
X4.5614Y-1.626
X4.5614Y-1.6969
X4.5614Y-1.7323
X4.5614Y-1.7677
X4.572Y-1.9921
X4.572Y-2.0291
X4.5878Y-1.4705
X4.5941Y-2.0689
X4.6122Y-1.9921
X4.6122Y-2.0291
X4.6126Y-1.4488
T5
X3.15Y-2.15
X3.25Y-2.15
X3.35Y-2.15
X3.45Y-2.15
X3.55Y-1.35
X3.55Y-2.15
X3.65Y-1.35
X3.65Y-2.15
X3.75Y-1.35
X3.75Y-2.15
X3.85Y-1.35
X3.85Y-2.15
X3.95Y-1.35
X3.95Y-2.15
X4.05Y-1.35
X4.05Y-2.15
X4.15Y-1.35
X4.15Y-2.15
X4.25Y-1.35
X4.25Y-2.15
X4.35Y-1.35
X4.35Y-2.15
X4.45Y-1.35
X4.45Y-2.15
X4.55Y-1.35
X4.55Y-2.15
X4.65Y-1.35
X4.65Y-2.15
T4
G00X2.6594Y-1.5799
M15
G01X2.6358Y-1.5799
M16
G05
G00X2.6594Y-1.9201
M15
G01X2.6358Y-1.9201
M16
G05
G00X2.8339Y-1.5799
M15
G01X2.7906Y-1.5799
M16
G05
G00X2.8339Y-1.9201
M15
G01X2.7906Y-1.9201
M16
G05
M30
